<?xml version="1.0" standalone="no"?><!DOCTYPE svg PUBLIC "-//W3C//DTD SVG 1.1//EN" "http://www.w3.org/Graphics/SVG/1.1/DTD/svg11.dtd">
<svg t="1635168455363" class="icon" viewBox="0 0 1024 1024" version="1.1" xmlns="http://www.w3.org/2000/svg" p-id="678"
     width="32" height="32"><defs><style type="text/css">* { font-family: "Comic Sans MS"; }
</style></defs><path d="M570 119c82.2 26.4 141.6 102.3 141.6 191.8 0 111.5-92 201.9-205.6 201.9S300.4 604.2 300.4 717c0 112.8 92 204.3 205.6 204.3 227.1 0 411.2-180.8 411.2-403.8 0-201.7-150.6-368.3-347.2-398.5z" fill="#FFC831" p-id="679"></path><path d="M506 931.4c-119 0-215.7-96.2-215.7-214.4S387 502.5 506 502.5c107.8 0 195.4-86 195.4-191.8 0-83.1-54.1-156.3-134.6-182.1-5-1.6-8-6.8-6.8-12 1.2-5.1 6.2-8.5 11.4-7.7 206.2 31.7 355.8 203.5 355.8 408.5 0.1 228.3-188.9 414-421.2 414z m138.6-783.2c48 39.4 77.2 98.3 77.2 162.6 0 116.9-96.8 212.1-215.7 212.1-107.8 0-195.4 87.1-195.4 194.1S398.2 911.1 506 911.1c221.1 0 401-176.6 401-393.7 0-168.6-106.6-313.7-262.4-369.2z" fill="#7F0518" p-id="680"></path><path d="M452.7 913.8C370.5 887.4 311.1 811.6 311.1 722c0-111.5 92-201.9 205.6-201.9s205.6-91.5 205.6-204.3c0-112.8-92-204.3-205.6-204.3-227.1 0-411.2 180.8-411.2 403.8 0 201.7 150.5 368.3 347.2 398.5z" fill="#FF6A48" p-id="681"></path><path d="M452.6 924c-0.5 0-1 0-1.5-0.1C245 892.1 95.3 720.3 95.3 515.4c0-228.3 189-414 421.3-414 119 0 215.7 96.2 215.7 214.4s-96.8 214.4-215.7 214.4c-107.8 0-195.4 86-195.4 191.8 0 83.1 54.1 156.3 134.5 182.2 5 1.6 8 6.8 6.8 12-1.1 4.6-5.2 7.8-9.9 7.8z m64.1-802.3c-221.1 0-401 176.6-401 393.7 0 168.7 106.6 313.7 262.5 369.3-48-39.4-77.2-98.3-77.2-162.6C301 605.2 397.8 510 516.7 510c107.8 0 195.4-87.1 195.4-194.1s-87.7-194.2-195.4-194.2z" fill="#7F0518" p-id="682"></path><path d="M508.7 322.8m-61.4 0a61.4 61.4 0 1 0 122.8 0 61.4 61.4 0 1 0-122.8 0Z" fill="#FFC831" p-id="683"></path><path d="M508.7 394.4c-39.5 0-71.6-32.1-71.6-71.6s32.1-71.6 71.6-71.6 71.6 32.1 71.6 71.6-32.1 71.6-71.6 71.6z m0-122.8c-28.3 0-51.3 23-51.3 51.3 0 28.3 23 51.3 51.3 51.3s51.3-23 51.3-51.3c0-28.3-23-51.3-51.3-51.3z" fill="#7F0518" p-id="684"></path><path d="M508.7 747.2m-61.4 0a61.4 61.4 0 1 0 122.8 0 61.4 61.4 0 1 0-122.8 0Z" fill="#FF6A48" p-id="685"></path><path d="M508.7 818.8c-39.5 0-71.6-32.1-71.6-71.6s32.1-71.6 71.6-71.6 71.6 32.1 71.6 71.6-32.1 71.6-71.6 71.6z m0-122.9c-28.3 0-51.3 23-51.3 51.3 0 28.3 23 51.3 51.3 51.3s51.3-23 51.3-51.3c0-28.3-23-51.3-51.3-51.3z" fill="#7F0518" p-id="686"></path></svg>