<?xml version="1.0" encoding="UTF-8" standalone="no"?>
<svg
   width="32"
   height="32"
   viewBox="0 0 32 32"
   fill="none"
   version="1.1"
   id="svg173"
   sodipodi:docname="pluginIcon.svg"
   inkscape:version="1.1 (c68e22c387, 2021-05-23)"
   xmlns:inkscape="http://www.inkscape.org/namespaces/inkscape"
   xmlns:sodipodi="http://sodipodi.sourceforge.net/DTD/sodipodi-0.dtd"
   xmlns="http://www.w3.org/2000/svg"
   xmlns:svg="http://www.w3.org/2000/svg">
  <sodipodi:namedview
     id="namedview175"
     pagecolor="#ffffff"
     bordercolor="#666666"
     borderopacity="1.0"
     inkscape:pageshadow="2"
     inkscape:pageopacity="0.0"
     inkscape:pagecheckerboard="0"
     showgrid="false"
     inkscape:zoom="14.857143"
     inkscape:cx="23.254808"
     inkscape:cy="22.985577"
     inkscape:window-width="1920"
     inkscape:window-height="1017"
     inkscape:window-x="-8"
     inkscape:window-y="-8"
     inkscape:window-maximized="1"
     inkscape:current-layer="svg173" />
  <path
     fill-rule="evenodd"
     clip-rule="evenodd"
     d="M 3.5593111,3.8394746 14.637431,14.255301 c 0.782695,0.752602 2.047033,0.752602 2.859846,0 L 28.575487,3.8394746 c 1.324366,-1.2643511 3.491821,-0.3010362 3.491821,1.5051787 v 5.9906137 c 0,0.57197 -0.240752,1.113822 -0.662069,1.505181 L 17.497277,25.935506 c -0.812813,0.752648 -2.047056,0.752648 -2.859846,0 L 0.72957272,12.840448 C 0.3081216,12.449089 0.06730769,11.907237 0.06730769,11.335267 V 5.3446533 c 0,-1.8062149 2.16745061,-2.7394244 3.49200341,-1.5051787 z M 32.037214,26.658288 v -5.930305 c 0,-1.806213 -2.167455,-2.769541 -3.492049,-1.505181 l -6.321778,5.930396 c -1.38476,1.294431 -0.451548,3.582263 1.414853,3.582263 h 6.321801 c 1.173896,0 2.077173,-0.933144 2.077173,-2.077173 z M 2.1444442,28.735233 h 6.3217464 c 1.8664234,0 2.7996354,-2.287832 1.414876,-3.582377 L 3.5593111,19.222437 C 2.2347583,17.988194 0.06730769,18.921405 0.06730769,20.727618 v 5.930442 c 0,1.143801 0.90309718,2.077173 2.07713651,2.077173 z"
     fill="url(#paint0_linear_427_200)"
     id="path164"
     style="fill:url(#paint0_linear_427_200);stroke-width:0.227985" />
  <defs
     id="defs171">
    <linearGradient
       id="paint0_linear_427_200"
       x1="36.5"
       y1="-1.13814e-07"
       x2="114"
       y2="126.5"
       gradientUnits="userSpaceOnUse"
       gradientTransform="matrix(0.22798518,0,0,0.22798518,0.06730769,3.2645005)">
      <stop
         stop-color="#06E9F0"
         id="stop166" />
      <stop
         offset="1"
         stop-color="#069CF0"
         id="stop168" />
    </linearGradient>
  </defs>
</svg>
